<?xml version="1.0" standalone="no"?><!DOCTYPE svg PUBLIC "-//W3C//DTD SVG 1.1//EN" "http://www.w3.org/Graphics/SVG/1.1/DTD/svg11.dtd"><svg t="1586959616104" class="icon" viewBox="0 0 1024 1024" version="1.1" xmlns="http://www.w3.org/2000/svg" p-id="5993" xmlns:xlink="http://www.w3.org/1999/xlink" width="200" height="200"><defs><style type="text/css"></style></defs><path d="M813.804544 402.39616l-144.41472 0.526336 59.636736-90.477568c59.628544-117.209088-30.844928-180.95104-30.844928-180.95104-63.746048-47.295488-93.242368 30.880768-93.242368 30.880768-118.556672 248.77056-312.89344 236.065792-312.89344 236.065792l-55.392256 0-62.306304 0c0 0-57.133056 0.248832-56.393728 62.539776l0 354.486272c1.98144 61.357056 55.428096 65.0752 55.428096 65.0752l41.884672 0 166.79424 0.605184 372.911104 0c52.445184 0 75.149312-27.84256 94.958592-94.959616l58.83392-235.418624C925.108224 449.876992 866.250752 402.39616 813.804544 402.39616zM219.02336 823.064576c0 10.933248-8.844288 19.777536-19.777536 19.777536s-19.777536-8.844288-19.777536-19.777536L179.468288 462.127104c0-10.933248 8.844288-19.777536 19.777536-19.777536s19.777536 8.844288 19.777536 19.777536L219.02336 823.064576z" p-id="5994" fill="#1296db"></path></svg>